<svg width="132" height="230" viewBox="0 0 132 230" fill="none" xmlns="http://www.w3.org/2000/svg">
<path d="M0 0H132V150H0V0Z" fill="#292620"/>
<path d="M66 150H0V230L66 150Z" fill="#292620"/>
<path d="M132 230V150H66L132 230Z" fill="#292620"/>
<rect y="129" width="132" height="20" fill="#292620"/>
<path d="M20.1906 84H18.4656V82.5H23.5656V84H21.8406V93H20.1906V84ZM23.6145 82.5H25.2645V86.775H27.0345V82.5H28.6845V93H27.0345V88.275H25.2645V93H23.6145V82.5ZM29.1633 82.5H33.6633V84H30.8133V86.775H33.0783V88.275H30.8133V91.5H33.6633V93H29.1633V82.5ZM37.2315 72H42.2115C43.9115 72 45.1515 72.4 45.9315 73.2C46.7115 73.98 47.1015 75.19 47.1015 76.83V77.67C47.1015 78.75 46.9215 79.63 46.5615 80.31C46.2215 80.99 45.6915 81.48 44.9715 81.78V81.84C46.6115 82.4 47.4315 83.86 47.4315 86.22V88.02C47.4315 89.64 47.0015 90.88 46.1415 91.74C45.3015 92.58 44.0615 93 42.4215 93H37.2315V72ZM41.8215 80.55C42.4815 80.55 42.9715 80.38 43.2915 80.04C43.6315 79.7 43.8015 79.13 43.8015 78.33V77.16C43.8015 76.4 43.6615 75.85 43.3815 75.51C43.1215 75.17 42.7015 75 42.1215 75H40.5315V80.55H41.8215ZM42.4215 90C43.0015 90 43.4315 89.85 43.7115 89.55C43.9915 89.23 44.1315 88.69 44.1315 87.93V86.1C44.1315 85.14 43.9615 84.48 43.6215 84.12C43.3015 83.74 42.7615 83.55 42.0015 83.55H40.5315V90H42.4215ZM50.4104 72H54.8804L58.3004 93H55.0004L54.4004 88.83V88.89H50.6504L50.0504 93H46.9904L50.4104 72ZM54.0104 86.04L52.5404 75.66H52.4804L51.0404 86.04H54.0104ZM58.4014 72H63.2914C64.9914 72 66.2314 72.4 67.0114 73.2C67.7914 73.98 68.1814 75.19 68.1814 76.83V78.12C68.1814 80.3 67.4614 81.68 66.0214 82.26V82.32C66.8214 82.56 67.3814 83.05 67.7014 83.79C68.0414 84.53 68.2114 85.52 68.2114 86.76V90.45C68.2114 91.05 68.2314 91.54 68.2714 91.92C68.3114 92.28 68.4114 92.64 68.5714 93H65.2114C65.0914 92.66 65.0114 92.34 64.9714 92.04C64.9314 91.74 64.9114 91.2 64.9114 90.42V86.58C64.9114 85.62 64.7514 84.95 64.4314 84.57C64.1314 84.19 63.6014 84 62.8414 84H61.7014V93H58.4014V72ZM62.9014 81C63.5614 81 64.0514 80.83 64.3714 80.49C64.7114 80.15 64.8814 79.58 64.8814 78.78V77.16C64.8814 76.4 64.7414 75.85 64.4614 75.51C64.2014 75.17 63.7814 75 63.2014 75H61.7014V81H62.9014ZM69.001 72H73.981C75.681 72 76.921 72.4 77.701 73.2C78.481 73.98 78.871 75.19 78.871 76.83V77.67C78.871 78.75 78.691 79.63 78.331 80.31C77.991 80.99 77.461 81.48 76.741 81.78V81.84C78.381 82.4 79.201 83.86 79.201 86.22V88.02C79.201 89.64 78.771 90.88 77.911 91.74C77.071 92.58 75.831 93 74.191 93H69.001V72ZM73.591 80.55C74.251 80.55 74.741 80.38 75.061 80.04C75.401 79.7 75.571 79.13 75.571 78.33V77.16C75.571 76.4 75.431 75.85 75.151 75.51C74.891 75.17 74.471 75 73.891 75H72.301V80.55H73.591ZM74.191 90C74.771 90 75.201 89.85 75.481 89.55C75.761 89.23 75.901 88.69 75.901 87.93V86.1C75.901 85.14 75.731 84.48 75.391 84.12C75.071 83.74 74.531 83.55 73.771 83.55H72.301V90H74.191ZM79.6299 72H88.6299V75H82.9299V80.55H87.4599V83.55H82.9299V90H88.6299V93H79.6299V72ZM89.0283 72H93.9183C95.6183 72 96.8583 72.4 97.6383 73.2C98.4183 73.98 98.8083 75.19 98.8083 76.83V78.12C98.8083 80.3 98.0883 81.68 96.6483 82.26V82.32C97.4483 82.56 98.0083 83.05 98.3283 83.79C98.6683 84.53 98.8383 85.52 98.8383 86.76V90.45C98.8383 91.05 98.8583 91.54 98.8983 91.92C98.9383 92.28 99.0383 92.64 99.1983 93H95.8383C95.7183 92.66 95.6383 92.34 95.5983 92.04C95.5583 91.74 95.5383 91.2 95.5383 90.42V86.58C95.5383 85.62 95.3783 84.95 95.0583 84.57C94.7583 84.19 94.2283 84 93.4683 84H92.3283V93H89.0283V72ZM93.5283 81C94.1883 81 94.6783 80.83 94.9983 80.49C95.3383 80.15 95.5083 79.58 95.5083 78.78V77.16C95.5083 76.4 95.3683 75.85 95.0883 75.51C94.8283 75.17 94.4083 75 93.8283 75H92.3283V81H93.5283ZM100.708 75.18H99.6279V72H102.808V74.85L100.978 78.78H99.4479L100.708 75.18ZM108.072 93.3C106.472 93.3 105.262 92.85 104.442 91.95C103.622 91.03 103.212 89.72 103.212 88.02V86.82H106.332V88.26C106.332 89.62 106.902 90.3 108.042 90.3C108.602 90.3 109.022 90.14 109.302 89.82C109.602 89.48 109.752 88.94 109.752 88.2C109.752 87.32 109.552 86.55 109.152 85.89C108.752 85.21 108.012 84.4 106.932 83.46C105.572 82.26 104.622 81.18 104.082 80.22C103.542 79.24 103.272 78.14 103.272 76.92C103.272 75.26 103.692 73.98 104.532 73.08C105.372 72.16 106.592 71.7 108.192 71.7C109.772 71.7 110.962 72.16 111.762 73.08C112.582 73.98 112.992 75.28 112.992 76.98V77.85H109.872V76.77C109.872 76.05 109.732 75.53 109.452 75.21C109.172 74.87 108.762 74.7 108.222 74.7C107.122 74.7 106.572 75.37 106.572 76.71C106.572 77.47 106.772 78.18 107.172 78.84C107.592 79.5 108.342 80.3 109.422 81.24C110.802 82.44 111.752 83.53 112.272 84.51C112.792 85.49 113.052 86.64 113.052 87.96C113.052 89.68 112.622 91 111.762 91.92C110.922 92.84 109.692 93.3 108.072 93.3Z" fill="white"/>
</svg>
